<svg width="48" height="48" viewBox="0 0 48 48" fill="none" xmlns="http://www.w3.org/2000/svg">
<mask id="mask0_3400_24313" style="mask-type:alpha" maskUnits="userSpaceOnUse" x="0" y="0" width="48" height="48">
<rect width="48" height="48" fill="#D9D9D9"/>
</mask>
<g mask="url(#mask0_3400_24313)">
<path d="M34 44C32.3333 44 30.9167 43.4167 29.75 42.25C28.5833 41.0833 28 39.6667 28 38C28 37.8 28.05 37.3333 28.15 36.6L14.1 28.4C13.5667 28.9 12.95 29.2917 12.25 29.575C11.55 29.8583 10.8 30 10 30C8.33333 30 6.91667 29.4167 5.75 28.25C4.58333 27.0833 4 25.6667 4 24C4 22.3333 4.58333 20.9167 5.75 19.75C6.91667 18.5833 8.33333 18 10 18C10.8 18 11.55 18.1417 12.25 18.425C12.95 18.7083 13.5667 19.1 14.1 19.6L28.15 11.4C28.0833 11.1667 28.0417 10.9417 28.025 10.725C28.0083 10.5083 28 10.2667 28 10C28 8.33333 28.5833 6.91667 29.75 5.75C30.9167 4.58333 32.3333 4 34 4C35.6667 4 37.0833 4.58333 38.25 5.75C39.4167 6.91667 40 8.33333 40 10C40 11.6667 39.4167 13.0833 38.25 14.25C37.0833 15.4167 35.6667 16 34 16C33.2 16 32.45 15.8583 31.75 15.575C31.05 15.2917 30.4333 14.9 29.9 14.4L15.85 22.6C15.9167 22.8333 15.9583 23.0583 15.975 23.275C15.9917 23.4917 16 23.7333 16 24C16 24.2667 15.9917 24.5083 15.975 24.725C15.9583 24.9417 15.9167 25.1667 15.85 25.4L29.9 33.6C30.4333 33.1 31.05 32.7083 31.75 32.425C32.45 32.1417 33.2 32 34 32C35.6667 32 37.0833 32.5833 38.25 33.75C39.4167 34.9167 40 36.3333 40 38C40 39.6667 39.4167 41.0833 38.25 42.25C37.0833 43.4167 35.6667 44 34 44ZM34 40C34.5667 40 35.0417 39.8083 35.425 39.425C35.8083 39.0417 36 38.5667 36 38C36 37.4333 35.8083 36.9583 35.425 36.575C35.0417 36.1917 34.5667 36 34 36C33.4333 36 32.9583 36.1917 32.575 36.575C32.1917 36.9583 32 37.4333 32 38C32 38.5667 32.1917 39.0417 32.575 39.425C32.9583 39.8083 33.4333 40 34 40ZM10 26C10.5667 26 11.0417 25.8083 11.425 25.425C11.8083 25.0417 12 24.5667 12 24C12 23.4333 11.8083 22.9583 11.425 22.575C11.0417 22.1917 10.5667 22 10 22C9.43333 22 8.95833 22.1917 8.575 22.575C8.19167 22.9583 8 23.4333 8 24C8 24.5667 8.19167 25.0417 8.575 25.425C8.95833 25.8083 9.43333 26 10 26ZM34 12C34.5667 12 35.0417 11.8083 35.425 11.425C35.8083 11.0417 36 10.5667 36 10C36 9.43333 35.8083 8.95833 35.425 8.575C35.0417 8.19167 34.5667 8 34 8C33.4333 8 32.9583 8.19167 32.575 8.575C32.1917 8.95833 32 9.43333 32 10C32 10.5667 32.1917 11.0417 32.575 11.425C32.9583 11.8083 33.4333 12 34 12Z" fill="#343434"/>
</g>
</svg>
